<?xml version="1.0" standalone="no"?>
<!DOCTYPE svg PUBLIC "-//W3C//DTD SVG 20010904//EN"
 "http://www.w3.org/TR/2001/REC-SVG-20010904/DTD/svg10.dtd">
<svg version="1.0" xmlns="http://www.w3.org/2000/svg"
 width="512.000000pt" height="512.000000pt" viewBox="0 0 512.000000 512.000000"
 preserveAspectRatio="xMidYMid meet">
<metadata>
Created by potrace 1.14, written by Peter Selinger 2001-2017
</metadata>
<g transform="translate(0.000000,512.000000) scale(0.100000,-0.100000)"
fill="#000000" stroke="none">
<path d="M820 5113 c-239 -37 -478 -169 -600 -332 -14 -18 -33 -41 -42 -49
-10 -9 -18 -22 -18 -29 0 -7 -4 -13 -10 -13 -5 0 -10 -5 -10 -11 0 -6 -9 -24
-21 -40 -11 -16 -18 -29 -14 -29 3 0 -1 -10 -9 -22 -26 -41 -64 -156 -83 -253
-4 -22 -8 -825 -8 -1785 0 -1686 1 -1748 19 -1820 47 -182 145 -356 262 -465
51 -47 84 -75 89 -75 3 0 11 -5 18 -10 46 -39 61 -50 69 -50 5 0 16 -7 25 -15
8 -8 19 -13 24 -10 5 4 9 1 9 -6 0 -7 3 -9 7 -6 3 4 11 3 17 -2 25 -21 166
-65 250 -79 22 -4 826 -7 1786 -7 1653 0 1748 1 1810 18 145 40 252 91 353
166 78 58 177 159 190 194 3 9 11 17 17 17 5 0 10 7 10 15 0 8 5 15 10 15 6 0
10 5 10 11 0 6 9 23 20 39 11 15 17 30 13 34 -3 3 -1 6 6 6 7 0 9 4 6 10 -3 5
-1 10 5 10 6 0 8 5 5 10 -3 6 -1 10 4 10 6 0 10 3 9 8 0 4 2 14 5 22 13 32 37
110 42 137 3 15 9 44 13 63 4 19 7 820 7 1780 0 1686 -1 1748 -19 1820 -25 96
-56 175 -101 256 -41 72 -133 187 -186 231 -19 15 -38 33 -42 40 -4 7 -14 13
-21 13 -8 0 -16 6 -19 13 -2 7 -25 23 -51 35 -25 13 -48 27 -51 33 -4 5 -11 7
-16 4 -5 -4 -9 -1 -9 5 0 6 -4 8 -10 5 -5 -3 -10 -1 -10 6 0 7 -3 9 -7 6 -3
-4 -11 -3 -17 2 -19 16 -138 52 -216 66 -61 11 -391 14 -1785 13 -940 0 -1721
-3 -1735 -5z m2810 -1537 c41 -3 89 -8 105 -12 45 -9 59 -12 65 -14 3 -1 10
-3 15 -4 22 -3 121 -39 133 -49 6 -5 12 -7 12 -3 0 9 77 -32 145 -78 65 -43
161 -135 214 -203 60 -79 135 -262 146 -359 l4 -30 -232 -2 c-128 -1 -242 1
-253 3 -13 3 -27 18 -35 37 -13 35 -55 99 -85 134 -40 44 -144 96 -223 111
-47 8 -155 9 -201 1 -54 -9 -160 -49 -160 -60 0 -5 -7 -8 -15 -8 -8 0 -41 -27
-74 -59 -74 -76 -117 -161 -148 -296 -10 -48 -9 -185 3 -246 27 -141 96 -256
208 -347 23 -18 112 -62 139 -68 88 -20 152 -23 231 -11 66 9 185 62 227 100
28 25 99 126 99 140 0 5 7 24 16 43 l16 34 249 -2 248 -1 -5 -35 c-5 -33 -9
-49 -18 -89 -2 -10 -9 -30 -15 -45 -6 -16 -8 -28 -5 -28 2 0 -1 -10 -8 -22 -7
-13 -13 -25 -13 -28 -1 -13 -60 -125 -67 -128 -4 -2 -8 -10 -8 -18 0 -8 -4
-14 -10 -14 -5 0 -10 -4 -10 -10 0 -11 -28 -46 -85 -105 -127 -131 -326 -224
-545 -255 -105 -15 -265 -13 -350 4 -8 1 -33 6 -55 10 -22 4 -47 10 -55 13 -8
3 -23 8 -34 10 -17 3 -36 10 -111 43 -16 8 -33 14 -37 14 -4 1 -13 7 -19 14
-7 6 -17 12 -21 12 -10 0 -106 60 -138 87 -85 70 -210 213 -210 239 0 8 -4 14
-9 14 -11 0 -74 139 -99 220 -11 36 -25 101 -32 145 -12 80 -16 274 -6 330 3
17 8 50 11 75 4 24 9 48 11 52 3 4 7 17 10 28 2 11 6 28 8 38 11 48 97 229
116 242 4 3 13 16 20 30 24 45 116 140 190 197 164 124 355 195 565 210 44 3
82 7 83 9 2 1 9 1 15 -1 7 -2 46 -6 87 -9z m-1959 -32 c113 -25 170 -47 226
-85 24 -16 46 -29 49 -29 4 0 50 -39 78 -66 95 -92 181 -267 205 -422 9 -59 7
-234 -4 -287 -19 -99 -91 -263 -143 -327 -50 -62 -176 -168 -201 -168 -4 0
-12 -5 -19 -12 -21 -21 -174 -67 -242 -73 -19 -2 -132 -3 -251 -4 l-217 -1 1
-250 c0 -138 -3 -253 -6 -257 -5 -4 -436 -8 -494 -4 -10 1 -13 208 -13 1001
l0 1001 484 -1 c377 -2 497 -5 547 -16z"/>
<path d="M3346 3339 c-96 -24 -202 -73 -282 -132 -61 -45 -174 -165 -174 -186
0 -6 -4 -11 -10 -11 -5 0 -10 -7 -10 -15 0 -8 -5 -15 -10 -15 -6 0 -9 -3 -8
-7 0 -5 -8 -28 -19 -53 -20 -44 -28 -65 -33 -85 -1 -5 -6 -20 -11 -33 -34 -88
-40 -298 -14 -427 38 -182 126 -327 275 -455 19 -16 47 -35 63 -41 15 -6 27
-16 27 -21 0 -5 5 -6 10 -3 6 3 10 3 10 -2 0 -7 107 -54 120 -52 3 0 17 -4 33
-10 48 -19 80 -23 188 -27 266 -9 464 83 616 286 48 64 62 100 39 100 -8 0
-18 -9 -21 -20 -3 -11 -11 -20 -16 -20 -5 0 -9 -6 -9 -13 0 -31 -114 -150
-194 -203 -32 -21 -102 -53 -155 -70 -91 -30 -103 -32 -231 -30 -143 3 -169 6
-240 33 -25 10 -47 18 -50 18 -16 3 -123 61 -139 76 -11 11 -22 19 -25 19 -14
0 -103 92 -145 150 -97 135 -142 277 -143 455 -1 136 12 212 52 320 26 69 44
105 53 105 4 0 7 6 7 13 0 26 132 170 195 213 52 35 145 86 145 79 0 -4 6 -3
13 3 18 15 115 43 172 49 287 33 545 -71 673 -272 27 -43 42 -56 54 -49 15 9
-64 118 -121 168 -13 12 -29 26 -35 31 -46 41 -174 111 -220 119 -6 1 -20 5
-31 9 -47 15 -87 20 -200 22 -93 3 -138 -1 -199 -16z"/>
<path d="M882 3336 c-4 -7 -7 -1484 -3 -1568 1 -10 8 -18 16 -18 13 0 15 39
17 267 l3 268 335 1 c184 1 349 4 365 7 49 9 117 36 160 64 47 31 115 98 115
113 0 5 4 10 8 10 8 0 51 77 51 93 0 4 7 20 15 35 22 43 31 106 31 222 -1 101
-8 139 -43 225 -21 54 -94 156 -127 180 -15 11 -32 25 -39 30 -12 12 -81 45
-93 46 -5 1 -16 5 -25 10 -9 5 -43 12 -75 15 -97 10 -704 10 -711 0z m778 -40
c30 -11 72 -30 92 -43 47 -29 128 -111 128 -129 0 -8 4 -14 9 -14 13 0 49 -89
67 -167 21 -90 12 -260 -17 -315 -5 -10 -7 -18 -4 -18 3 0 -8 -26 -25 -57 -57
-110 -146 -184 -264 -218 -50 -15 -107 -17 -385 -17 -179 0 -332 1 -338 1 -10
1 -13 108 -13 500 l0 499 348 -2 c310 -2 353 -4 402 -20z"/>
<path d="M1168 3102 c-13 -3 -15 -39 -15 -288 l0 -285 211 3 c242 3 254 7 313
91 18 26 31 47 28 47 -3 0 -1 9 5 21 16 30 21 56 21 127 0 150 -62 251 -171
279 -18 5 -371 9 -392 5z"/>
</g>
</svg>
