<?xml version="1.0" standalone="no"?>
<!DOCTYPE svg PUBLIC "-//W3C//DTD SVG 20010904//EN"
 "http://www.w3.org/TR/2001/REC-SVG-20010904/DTD/svg10.dtd">
<svg version="1.0" xmlns="http://www.w3.org/2000/svg"
 width="512.000000pt" height="512.000000pt" viewBox="0 0 512.000000 512.000000"
 preserveAspectRatio="xMidYMid meet">
<metadata>
Created by potrace 1.14, written by Peter Selinger 2001-2017
</metadata>
<g transform="translate(0.000000,512.000000) scale(0.100000,-0.100000)"
fill="#000000" stroke="none">
<path d="M820 5113 c-240 -37 -433 -143 -602 -331 -16 -16 -28 -35 -28 -40 0
-5 -6 -12 -12 -15 -7 -3 -22 -22 -33 -43 -11 -22 -24 -42 -28 -45 -5 -3 -9
-12 -11 -20 -1 -8 -13 -34 -26 -59 -12 -25 -23 -47 -23 -50 0 -3 -3 -15 -8
-28 -5 -13 -11 -37 -14 -54 -3 -17 -8 -34 -10 -38 -17 -28 -20 -291 -20 -1840
0 -1686 1 -1748 19 -1820 67 -262 199 -443 436 -599 24 -16 48 -27 52 -25 4 3
8 0 8 -7 0 -7 3 -9 7 -6 3 4 15 -1 26 -10 10 -10 21 -17 23 -16 4 3 22 -3 77
-23 20 -8 37 -12 37 -9 0 2 12 0 26 -5 14 -6 47 -13 72 -18 26 -4 832 -7 1792
-7 1653 0 1748 1 1810 18 139 39 217 74 320 143 87 58 208 176 223 217 3 9 11
17 17 17 5 0 10 7 10 15 0 8 4 15 9 15 5 0 11 8 15 18 3 9 19 41 35 70 16 28
26 52 24 52 -3 0 -1 6 4 13 10 12 39 102 48 147 3 14 9 41 13 60 4 19 7 820 7
1780 0 1686 -1 1748 -19 1820 -25 96 -56 175 -101 256 -41 72 -133 187 -186
231 -19 15 -38 33 -42 40 -4 7 -14 13 -21 13 -8 0 -16 7 -20 15 -3 8 -12 15
-21 15 -8 0 -15 4 -15 10 0 5 -11 12 -25 16 -14 3 -25 10 -25 14 0 4 -10 11
-22 15 -13 4 -25 8 -28 9 -3 2 -26 12 -52 24 -59 26 -104 39 -198 57 -63 12
-358 14 -1785 13 -940 0 -1721 -3 -1735 -5z m2954 -1018 c105 -11 158 -21 232
-43 40 -13 148 -65 152 -74 2 -5 10 -8 17 -8 7 0 15 -7 19 -15 3 -8 10 -15 16
-15 13 0 72 -59 115 -116 63 -81 125 -253 142 -397 4 -34 8 -149 8 -256 l0
-194 -307 1 c-170 0 -315 1 -323 1 -13 1 -15 30 -15 202 0 224 -12 329 -43
374 -21 31 -55 64 -66 66 -3 0 -15 3 -26 6 -46 11 -152 5 -183 -11 -48 -25
-83 -68 -97 -118 -2 -5 -3 -9 -5 -10 -4 -6 -11 -44 -15 -83 -3 -22 -5 -400 -6
-840 -1 -911 1 -936 72 -1017 41 -46 75 -57 164 -55 72 2 86 5 118 30 21 15
37 35 37 43 0 7 5 14 10 14 6 0 9 3 8 8 -1 4 3 23 10 42 17 51 20 101 21 333
l1 207 326 0 326 0 -6 -222 c-3 -123 -7 -234 -10 -248 -5 -28 -14 -74 -20
-106 -7 -32 -33 -116 -47 -149 -7 -16 -12 -33 -11 -37 1 -5 -2 -8 -8 -8 -6 0
-9 -3 -8 -7 2 -12 -24 -63 -33 -63 -4 0 -10 -9 -14 -20 -14 -44 -152 -163
-240 -208 -42 -21 -144 -53 -182 -58 -11 -1 -29 -5 -40 -8 -60 -18 -265 -24
-398 -11 -86 8 -89 8 -181 29 -11 2 -37 11 -57 20 -20 8 -37 13 -37 11 0 -8
-110 55 -160 92 -181 135 -276 341 -306 668 -4 44 -8 361 -8 705 0 549 4 700
19 825 4 39 31 167 35 173 2 1 3 5 4 10 33 139 142 309 246 382 19 13 37 27
40 31 9 12 106 57 166 78 69 23 206 47 284 50 30 1 55 3 56 4 5 4 144 -1 208
-8z m-2007 -39 c156 -18 300 -67 363 -123 14 -13 29 -23 33 -23 5 0 25 -17 45
-39 120 -125 171 -234 210 -441 18 -95 23 -362 8 -436 -3 -18 -8 -50 -11 -72
-3 -23 -9 -52 -15 -66 -5 -15 -7 -26 -4 -26 2 0 -2 -13 -11 -30 -9 -16 -13
-30 -9 -30 3 0 -1 -11 -10 -25 -9 -13 -16 -31 -16 -40 0 -8 -3 -15 -8 -15 -4
0 -16 -17 -27 -37 -34 -65 -153 -174 -229 -211 -163 -79 -302 -104 -601 -106
l-180 -2 -2 -624 c-1 -344 -2 -631 -2 -637 -1 -10 -74 -13 -331 -13 l-330 0 0
1499 0 1500 23 3 c42 6 1046 1 1104 -6z"/>
<path d="M1308 3596 c0 -1 -2 -180 -3 -399 l-2 -398 152 2 c209 1 263 21 315
114 20 36 26 59 35 135 16 132 6 325 -20 397 -23 59 -82 119 -127 129 -5 1 -9
2 -10 4 -10 8 -63 11 -190 14 -82 1 -149 2 -150 2z"/>
</g>
</svg>
